# xmcd
#
# Track frame offsets: 
#        150
#        17697
#        28970
#        47190
#        64540
#        77070
#        92450
#        110787
#        124975
#        140115
#        159582
#        180800
#        198622
#        218067
#        248625
#        259487
#        289775
#
# Disc length: 4308 seconds
#
# Revision: 3
# Processed by: cddbd v1.5.2PL0 Copyright (c) Steve Scherf et al.
# Submitted via: ExactAudioCopy v1.0b3
#
DISCID=f910d211
DTITLE=Dwight Yoakam - Dwight Live
DYEAR=1994
DGENRE=Country
TTITLE0=Little Sister
TTITLE1=It Only Hurt's When I Cry
TTITLE2=The Heart That You Own
TTITLE3=This Time
TTITLE4=Streets Of Bakersfield
TTITLE5=Little Ways
TTITLE6=Please, Please Baby
TTITLE7=Nothings Changed Here
TTITLE8=Lonesome Roads
TTITLE9=A Thousand Miles From Nowhere
TTITLE10=Wild Ride
TTITLE11=Two Doors Down
TTITLE12=Fast As You
TTITLE13=Long White Cadillac
TTITLE14=Miner's Prayer
TTITLE15=Rocky Road Blues
TTITLE16=Suspicious Minds
EXTD=YEAR: 1994
EXTT0=
EXTT1=
EXTT2=
EXTT3=
EXTT4=
EXTT5=
EXTT6=
EXTT7=
EXTT8=
EXTT9=
EXTT10=
EXTT11=
EXTT12=
EXTT13=
EXTT14=
EXTT15=
EXTT16=
PLAYORDER=
